# xmcd
#
# Track frame offsets:
#	150
#	17707
#	35973
#	66750
#	82020
#	102043
#	117019
#	135032
#	160390
#	180234
#	196394
#	210256
#	230880
#	248717
#
# Disc length: 3512 seconds
#
# Revision: 1
# Processed by: cddbd v1.4PL0 Copyright (c) Steve Scherf et al.
# Submitted via: audiograbber 1.81.03
#
DISCID=b20db60e
DTITLE=Glen`Fortinberry - Moment of Truth
DYEAR=2001
DGENRE=
TTITLE0=Hoy Hoy
TTITLE1=Rollin Man
TTITLE2=Blues at Sunrise
TTITLE3=Look What The Cat Dragged In
TTITLE4=Close To You
TTITLE5=Roll over Bach
TTITLE6=Oh, Pretty Woman
TTITLE7=Play it Cool
TTITLE8=You'll Be Mine
TTITLE9=Farther Up the Road
TTITLE10=Humdinger
TTITLE11=I Feel So Good
TTITLE12=Killing Floor
TTITLE13=In Too Deep
EXTD=
EXTT0=
EXTT1=
EXTT2=
EXTT3=
EXTT4=
EXTT5=
EXTT6=
EXTT7=
EXTT8=
EXTT9=
EXTT10=
EXTT11=
EXTT12=
EXTT13=
PLAYORDER=
